# xmcd
# 
# Track frame offsets:
#     150
#     13586
#     40471
#     64661
#     92127
#     107952
#     135215
#     171904
#     198350
#     212765
#     242075
#     266842
# 
# Disc length: 3755
# 
# Revision: 1
# Processed by: cddbd v1.5.2PL0 Copyright (c) Steve Scherf et al.
# Submitted via: BonkEnc v1.0.8
# 
DISCID=aa0ea90c
DTITLE=Marc Copland - [Solo] Time Within Time
DYEAR=2004
DGENRE=Contemporary Jazz
TTITLE0=Some Other Time (C major)
TTITLE1=River's Run
TTITLE2=Pirouette
TTITLE3=Footprints
TTITLE4=Some Other Time (D flat major)
TTITLE5=Time Was
TTITLE6=Round She Goes
TTITLE7=Django
TTITLE8=Some Other Time (G major)
TTITLE9=All blues
TTITLE10=You Can't Go Home Again
TTITLE11=Some Other Time (C major)
EXTD=YEAR: 2005
EXTT0=
EXTT1=
EXTT2=
EXTT3=
EXTT4=
EXTT5=
EXTT6=
EXTT7=
EXTT8=
EXTT9=
EXTT10=
EXTT11=
PLAYORDER=
